<svg id="visual" viewBox="0 0 1500 1500" width="1500" height="1500" xmlns="http://www.w3.org/2000/svg" xmlns:xlink="http://www.w3.org/1999/xlink" version="1.1"><rect x="0" y="0" width="1500" height="1500" fill="#001220"></rect><path d="M0 956L35.7 982.2C71.3 1008.3 142.7 1060.7 214.2 1060.2C285.7 1059.7 357.3 1006.3 428.8 977.2C500.3 948 571.7 943 643 930C714.3 917 785.7 896 857 910.5C928.3 925 999.7 975 1071.2 987.8C1142.7 1000.7 1214.3 976.3 1285.8 986.5C1357.3 996.7 1428.7 1041.3 1464.3 1063.7L1500 1086L1500 1501L1464.3 1501C1428.7 1501 1357.3 1501 1285.8 1501C1214.3 1501 1142.7 1501 1071.2 1501C999.7 1501 928.3 1501 857 1501C785.7 1501 714.3 1501 643 1501C571.7 1501 500.3 1501 428.8 1501C357.3 1501 285.7 1501 214.2 1501C142.7 1501 71.3 1501 35.7 1501L0 1501Z" fill="#6600ff"></path><path d="M0 1001L35.7 1018.3C71.3 1035.7 142.7 1070.3 214.2 1089.2C285.7 1108 357.3 1111 428.8 1123.3C500.3 1135.7 571.7 1157.3 643 1165.2C714.3 1173 785.7 1167 857 1142.5C928.3 1118 999.7 1075 1071.2 1079.7C1142.7 1084.3 1214.3 1136.7 1285.8 1155.7C1357.3 1174.7 1428.7 1160.3 1464.3 1153.2L1500 1146L1500 1501L1464.3 1501C1428.7 1501 1357.3 1501 1285.8 1501C1214.3 1501 1142.7 1501 1071.2 1501C999.7 1501 928.3 1501 857 1501C785.7 1501 714.3 1501 643 1501C571.7 1501 500.3 1501 428.8 1501C357.3 1501 285.7 1501 214.2 1501C142.7 1501 71.3 1501 35.7 1501L0 1501Z" fill="#d500c4"></path><path d="M0 1174L35.7 1180C71.3 1186 142.7 1198 214.2 1204C285.7 1210 357.3 1210 428.8 1213.3C500.3 1216.7 571.7 1223.3 643 1215C714.3 1206.7 785.7 1183.3 857 1171.3C928.3 1159.3 999.7 1158.7 1071.2 1170.5C1142.7 1182.3 1214.3 1206.7 1285.8 1210.8C1357.3 1215 1428.7 1199 1464.3 1191L1500 1183L1500 1501L1464.3 1501C1428.7 1501 1357.3 1501 1285.8 1501C1214.3 1501 1142.7 1501 1071.2 1501C999.7 1501 928.3 1501 857 1501C785.7 1501 714.3 1501 643 1501C571.7 1501 500.3 1501 428.8 1501C357.3 1501 285.7 1501 214.2 1501C142.7 1501 71.3 1501 35.7 1501L0 1501Z" fill="#fa0095"></path><path d="M0 1203L35.7 1215C71.3 1227 142.7 1251 214.2 1276.5C285.7 1302 357.3 1329 428.8 1332.3C500.3 1335.7 571.7 1315.3 643 1305.3C714.3 1295.3 785.7 1295.7 857 1295.5C928.3 1295.3 999.7 1294.7 1071.2 1288.5C1142.7 1282.3 1214.3 1270.7 1285.8 1271.7C1357.3 1272.7 1428.7 1286.3 1464.3 1293.2L1500 1300L1500 1501L1464.3 1501C1428.7 1501 1357.3 1501 1285.8 1501C1214.3 1501 1142.7 1501 1071.2 1501C999.7 1501 928.3 1501 857 1501C785.7 1501 714.3 1501 643 1501C571.7 1501 500.3 1501 428.8 1501C357.3 1501 285.7 1501 214.2 1501C142.7 1501 71.3 1501 35.7 1501L0 1501Z" fill="#ff4575"></path><path d="M0 1418L35.7 1415.2C71.3 1412.3 142.7 1406.7 214.2 1392.2C285.7 1377.7 357.3 1354.3 428.8 1357.7C500.3 1361 571.7 1391 643 1394.8C714.3 1398.7 785.7 1376.3 857 1378.8C928.3 1381.3 999.7 1408.7 1071.2 1404.5C1142.7 1400.3 1214.3 1364.7 1285.8 1350.3C1357.3 1336 1428.7 1343 1464.3 1346.5L1500 1350L1500 1501L1464.3 1501C1428.7 1501 1357.3 1501 1285.8 1501C1214.3 1501 1142.7 1501 1071.2 1501C999.7 1501 928.3 1501 857 1501C785.7 1501 714.3 1501 643 1501C571.7 1501 500.3 1501 428.8 1501C357.3 1501 285.7 1501 214.2 1501C142.7 1501 71.3 1501 35.7 1501L0 1501Z" fill="#ff6f61"></path></svg>