<svg id="visual" viewBox="0 0 1500 1500" width="1500" height="1500" xmlns="http://www.w3.org/2000/svg" xmlns:xlink="http://www.w3.org/1999/xlink" version="1.1"><rect x="0" y="0" width="1500" height="1500" fill="#001220"></rect><path d="M0 964L35.7 962.7C71.3 961.3 142.7 958.7 214.2 951.5C285.7 944.3 357.3 932.7 428.8 917C500.3 901.3 571.7 881.7 643 867.8C714.3 854 785.7 846 857 865.7C928.3 885.3 999.7 932.7 1071.2 942.3C1142.7 952 1214.3 924 1285.8 915.8C1357.3 907.7 1428.7 919.3 1464.3 925.2L1500 931L1500 1501L1464.3 1501C1428.7 1501 1357.3 1501 1285.8 1501C1214.3 1501 1142.7 1501 1071.2 1501C999.7 1501 928.3 1501 857 1501C785.7 1501 714.3 1501 643 1501C571.7 1501 500.3 1501 428.8 1501C357.3 1501 285.7 1501 214.2 1501C142.7 1501 71.3 1501 35.7 1501L0 1501Z" fill="#001122"></path><path d="M0 927L35.7 946.8C71.3 966.7 142.7 1006.3 214.2 1002C285.7 997.7 357.3 949.3 428.8 933.7C500.3 918 571.7 935 643 937C714.3 939 785.7 926 857 917.7C928.3 909.3 999.7 905.7 1071.2 932C1142.7 958.3 1214.3 1014.7 1285.8 1037.3C1357.3 1060 1428.7 1049 1464.3 1043.5L1500 1038L1500 1501L1464.3 1501C1428.7 1501 1357.3 1501 1285.8 1501C1214.3 1501 1142.7 1501 1071.2 1501C999.7 1501 928.3 1501 857 1501C785.7 1501 714.3 1501 643 1501C571.7 1501 500.3 1501 428.8 1501C357.3 1501 285.7 1501 214.2 1501C142.7 1501 71.3 1501 35.7 1501L0 1501Z" fill="#06344a"></path><path d="M0 1013L35.7 1017.5C71.3 1022 142.7 1031 214.2 1030.5C285.7 1030 357.3 1020 428.8 1038C500.3 1056 571.7 1102 643 1097.5C714.3 1093 785.7 1038 857 1025.8C928.3 1013.7 999.7 1044.3 1071.2 1063.7C1142.7 1083 1214.3 1091 1285.8 1083.2C1357.3 1075.3 1428.7 1051.7 1464.3 1039.8L1500 1028L1500 1501L1464.3 1501C1428.7 1501 1357.3 1501 1285.8 1501C1214.3 1501 1142.7 1501 1071.2 1501C999.7 1501 928.3 1501 857 1501C785.7 1501 714.3 1501 643 1501C571.7 1501 500.3 1501 428.8 1501C357.3 1501 285.7 1501 214.2 1501C142.7 1501 71.3 1501 35.7 1501L0 1501Z" fill="#005b72"></path><path d="M0 1197L35.7 1197.3C71.3 1197.7 142.7 1198.3 214.2 1194.3C285.7 1190.3 357.3 1181.7 428.8 1181C500.3 1180.3 571.7 1187.7 643 1185.8C714.3 1184 785.7 1173 857 1152.5C928.3 1132 999.7 1102 1071.2 1090C1142.7 1078 1214.3 1084 1285.8 1089.3C1357.3 1094.7 1428.7 1099.3 1464.3 1101.7L1500 1104L1500 1501L1464.3 1501C1428.7 1501 1357.3 1501 1285.8 1501C1214.3 1501 1142.7 1501 1071.2 1501C999.7 1501 928.3 1501 857 1501C785.7 1501 714.3 1501 643 1501C571.7 1501 500.3 1501 428.8 1501C357.3 1501 285.7 1501 214.2 1501C142.7 1501 71.3 1501 35.7 1501L0 1501Z" fill="#008597"></path><path d="M0 1298L35.7 1276.3C71.3 1254.7 142.7 1211.3 214.2 1210.2C285.7 1209 357.3 1250 428.8 1262.5C500.3 1275 571.7 1259 643 1245.7C714.3 1232.3 785.7 1221.7 857 1220.7C928.3 1219.7 999.7 1228.3 1071.2 1234.2C1142.7 1240 1214.3 1243 1285.8 1231.5C1357.3 1220 1428.7 1194 1464.3 1181L1500 1168L1500 1501L1464.3 1501C1428.7 1501 1357.3 1501 1285.8 1501C1214.3 1501 1142.7 1501 1071.2 1501C999.7 1501 928.3 1501 857 1501C785.7 1501 714.3 1501 643 1501C571.7 1501 500.3 1501 428.8 1501C357.3 1501 285.7 1501 214.2 1501C142.7 1501 71.3 1501 35.7 1501L0 1501Z" fill="#00b2ab"></path><path d="M0 1303L35.7 1305.7C71.3 1308.3 142.7 1313.7 214.2 1310.5C285.7 1307.3 357.3 1295.7 428.8 1303.2C500.3 1310.7 571.7 1337.3 643 1343.3C714.3 1349.3 785.7 1334.7 857 1322.2C928.3 1309.7 999.7 1299.3 1071.2 1301.7C1142.7 1304 1214.3 1319 1285.8 1332.3C1357.3 1345.7 1428.7 1357.3 1464.3 1363.2L1500 1369L1500 1501L1464.3 1501C1428.7 1501 1357.3 1501 1285.8 1501C1214.3 1501 1142.7 1501 1071.2 1501C999.7 1501 928.3 1501 857 1501C785.7 1501 714.3 1501 643 1501C571.7 1501 500.3 1501 428.8 1501C357.3 1501 285.7 1501 214.2 1501C142.7 1501 71.3 1501 35.7 1501L0 1501Z" fill="#00dc8b"></path><path d="M0 1389L35.7 1391.5C71.3 1394 142.7 1399 214.2 1397.2C285.7 1395.3 357.3 1386.7 428.8 1378.3C500.3 1370 571.7 1362 643 1371.7C714.3 1381.3 785.7 1408.7 857 1407C928.3 1405.3 999.7 1374.7 1071.2 1378.8C1142.7 1383 1214.3 1422 1285.8 1432C1357.3 1442 1428.7 1423 1464.3 1413.5L1500 1404L1500 1501L1464.3 1501C1428.7 1501 1357.3 1501 1285.8 1501C1214.3 1501 1142.7 1501 1071.2 1501C999.7 1501 928.3 1501 857 1501C785.7 1501 714.3 1501 643 1501C571.7 1501 500.3 1501 428.8 1501C357.3 1501 285.7 1501 214.2 1501C142.7 1501 71.3 1501 35.7 1501L0 1501Z" fill="#00ff27"></path></svg>