<svg id="visual" viewBox="0 0 1500 1500" width="1500" height="1500" xmlns="http://www.w3.org/2000/svg" xmlns:xlink="http://www.w3.org/1999/xlink" version="1.1"><rect x="0" y="0" width="1500" height="1500" fill="#001220"></rect><path d="M0 909L35.7 901.2C71.3 893.3 142.7 877.7 214.2 878C285.7 878.3 357.3 894.7 428.8 915.3C500.3 936 571.7 961 643 963.8C714.3 966.7 785.7 947.3 857 925.5C928.3 903.7 999.7 879.3 1071.2 868.2C1142.7 857 1214.3 859 1285.8 867C1357.3 875 1428.7 889 1464.3 896L1500 903L1500 1501L1464.3 1501C1428.7 1501 1357.3 1501 1285.8 1501C1214.3 1501 1142.7 1501 1071.2 1501C999.7 1501 928.3 1501 857 1501C785.7 1501 714.3 1501 643 1501C571.7 1501 500.3 1501 428.8 1501C357.3 1501 285.7 1501 214.2 1501C142.7 1501 71.3 1501 35.7 1501L0 1501Z" fill="#0066ff"></path><path d="M0 895L35.7 906C71.3 917 142.7 939 214.2 958.5C285.7 978 357.3 995 428.8 1010.5C500.3 1026 571.7 1040 643 1032.7C714.3 1025.3 785.7 996.7 857 988.7C928.3 980.7 999.7 993.3 1071.2 998.5C1142.7 1003.7 1214.3 1001.3 1285.8 985.2C1357.3 969 1428.7 939 1464.3 924L1500 909L1500 1501L1464.3 1501C1428.7 1501 1357.3 1501 1285.8 1501C1214.3 1501 1142.7 1501 1071.2 1501C999.7 1501 928.3 1501 857 1501C785.7 1501 714.3 1501 643 1501C571.7 1501 500.3 1501 428.8 1501C357.3 1501 285.7 1501 214.2 1501C142.7 1501 71.3 1501 35.7 1501L0 1501Z" fill="#9e54e7"></path><path d="M0 1039L35.7 1044C71.3 1049 142.7 1059 214.2 1064C285.7 1069 357.3 1069 428.8 1051.2C500.3 1033.3 571.7 997.7 643 993.7C714.3 989.7 785.7 1017.3 857 1044.2C928.3 1071 999.7 1097 1071.2 1086.7C1142.7 1076.3 1214.3 1029.7 1285.8 1016C1357.3 1002.3 1428.7 1021.7 1464.3 1031.3L1500 1041L1500 1501L1464.3 1501C1428.7 1501 1357.3 1501 1285.8 1501C1214.3 1501 1142.7 1501 1071.2 1501C999.7 1501 928.3 1501 857 1501C785.7 1501 714.3 1501 643 1501C571.7 1501 500.3 1501 428.8 1501C357.3 1501 285.7 1501 214.2 1501C142.7 1501 71.3 1501 35.7 1501L0 1501Z" fill="#d643c6"></path><path d="M0 1177L35.7 1164.5C71.3 1152 142.7 1127 214.2 1117.2C285.7 1107.3 357.3 1112.7 428.8 1127.2C500.3 1141.7 571.7 1165.3 643 1152.5C714.3 1139.7 785.7 1090.3 857 1086.7C928.3 1083 999.7 1125 1071.2 1130.8C1142.7 1136.7 1214.3 1106.3 1285.8 1091.7C1357.3 1077 1428.7 1078 1464.3 1078.5L1500 1079L1500 1501L1464.3 1501C1428.7 1501 1357.3 1501 1285.8 1501C1214.3 1501 1142.7 1501 1071.2 1501C999.7 1501 928.3 1501 857 1501C785.7 1501 714.3 1501 643 1501C571.7 1501 500.3 1501 428.8 1501C357.3 1501 285.7 1501 214.2 1501C142.7 1501 71.3 1501 35.7 1501L0 1501Z" fill="#f63ea2"></path><path d="M0 1183L35.7 1175.3C71.3 1167.7 142.7 1152.3 214.2 1145.7C285.7 1139 357.3 1141 428.8 1140.3C500.3 1139.7 571.7 1136.3 643 1151.5C714.3 1166.7 785.7 1200.3 857 1203.3C928.3 1206.3 999.7 1178.7 1071.2 1176C1142.7 1173.3 1214.3 1195.7 1285.8 1201.3C1357.3 1207 1428.7 1196 1464.3 1190.5L1500 1185L1500 1501L1464.3 1501C1428.7 1501 1357.3 1501 1285.8 1501C1214.3 1501 1142.7 1501 1071.2 1501C999.7 1501 928.3 1501 857 1501C785.7 1501 714.3 1501 643 1501C571.7 1501 500.3 1501 428.8 1501C357.3 1501 285.7 1501 214.2 1501C142.7 1501 71.3 1501 35.7 1501L0 1501Z" fill="#ff4f80"></path><path d="M0 1233L35.7 1233C71.3 1233 142.7 1233 214.2 1238.8C285.7 1244.7 357.3 1256.3 428.8 1250.7C500.3 1245 571.7 1222 643 1224.5C714.3 1227 785.7 1255 857 1275.3C928.3 1295.7 999.7 1308.3 1071.2 1309.3C1142.7 1310.3 1214.3 1299.7 1285.8 1289.7C1357.3 1279.7 1428.7 1270.3 1464.3 1265.7L1500 1261L1500 1501L1464.3 1501C1428.7 1501 1357.3 1501 1285.8 1501C1214.3 1501 1142.7 1501 1071.2 1501C999.7 1501 928.3 1501 857 1501C785.7 1501 714.3 1501 643 1501C571.7 1501 500.3 1501 428.8 1501C357.3 1501 285.7 1501 214.2 1501C142.7 1501 71.3 1501 35.7 1501L0 1501Z" fill="#ff6d62"></path><path d="M0 1298L35.7 1300C71.3 1302 142.7 1306 214.2 1310.2C285.7 1314.3 357.3 1318.7 428.8 1318.8C500.3 1319 571.7 1315 643 1327.5C714.3 1340 785.7 1369 857 1363.3C928.3 1357.7 999.7 1317.3 1071.2 1307.8C1142.7 1298.3 1214.3 1319.7 1285.8 1330.8C1357.3 1342 1428.7 1343 1464.3 1343.5L1500 1344L1500 1501L1464.3 1501C1428.7 1501 1357.3 1501 1285.8 1501C1214.3 1501 1142.7 1501 1071.2 1501C999.7 1501 928.3 1501 857 1501C785.7 1501 714.3 1501 643 1501C571.7 1501 500.3 1501 428.8 1501C357.3 1501 285.7 1501 214.2 1501C142.7 1501 71.3 1501 35.7 1501L0 1501Z" fill="#ff8e49"></path><path d="M0 1424L35.7 1427.3C71.3 1430.7 142.7 1437.3 214.2 1427.3C285.7 1417.3 357.3 1390.7 428.8 1395.5C500.3 1400.3 571.7 1436.7 643 1443.2C714.3 1449.7 785.7 1426.3 857 1421.5C928.3 1416.7 999.7 1430.3 1071.2 1429C1142.7 1427.7 1214.3 1411.3 1285.8 1415.2C1357.3 1419 1428.7 1443 1464.3 1455L1500 1467L1500 1501L1464.3 1501C1428.7 1501 1357.3 1501 1285.8 1501C1214.3 1501 1142.7 1501 1071.2 1501C999.7 1501 928.3 1501 857 1501C785.7 1501 714.3 1501 643 1501C571.7 1501 500.3 1501 428.8 1501C357.3 1501 285.7 1501 214.2 1501C142.7 1501 71.3 1501 35.7 1501L0 1501Z" fill="#fcaf3c"></path></svg>