<svg id="visual" viewBox="0 0 1500 1500" width="1500" height="1500" xmlns="http://www.w3.org/2000/svg" xmlns:xlink="http://www.w3.org/1999/xlink" version="1.1"><rect x="0" y="0" width="1500" height="1500" fill="#001220"></rect><path d="M0 1078L35.7 1051.2C71.3 1024.3 142.7 970.7 214.2 941.8C285.7 913 357.3 909 428.8 930.5C500.3 952 571.7 999 643 994.5C714.3 990 785.7 934 857 921C928.3 908 999.7 938 1071.2 974.7C1142.7 1011.3 1214.3 1054.7 1285.8 1067.3C1357.3 1080 1428.7 1062 1464.3 1053L1500 1044L1500 1501L1464.3 1501C1428.7 1501 1357.3 1501 1285.8 1501C1214.3 1501 1142.7 1501 1071.2 1501C999.7 1501 928.3 1501 857 1501C785.7 1501 714.3 1501 643 1501C571.7 1501 500.3 1501 428.8 1501C357.3 1501 285.7 1501 214.2 1501C142.7 1501 71.3 1501 35.7 1501L0 1501Z" fill="#ff00b2"></path><path d="M0 1173L35.7 1142.5C71.3 1112 142.7 1051 214.2 1027.8C285.7 1004.7 357.3 1019.3 428.8 1040C500.3 1060.7 571.7 1087.3 643 1112.7C714.3 1138 785.7 1162 857 1173.7C928.3 1185.3 999.7 1184.7 1071.2 1168.2C1142.7 1151.7 1214.3 1119.3 1285.8 1107.2C1357.3 1095 1428.7 1103 1464.3 1107L1500 1111L1500 1501L1464.3 1501C1428.7 1501 1357.3 1501 1285.8 1501C1214.3 1501 1142.7 1501 1071.2 1501C999.7 1501 928.3 1501 857 1501C785.7 1501 714.3 1501 643 1501C571.7 1501 500.3 1501 428.8 1501C357.3 1501 285.7 1501 214.2 1501C142.7 1501 71.3 1501 35.7 1501L0 1501Z" fill="#ff3581"></path><path d="M0 1210L35.7 1217.8C71.3 1225.7 142.7 1241.3 214.2 1232.3C285.7 1223.3 357.3 1189.7 428.8 1177C500.3 1164.3 571.7 1172.7 643 1191C714.3 1209.3 785.7 1237.7 857 1243C928.3 1248.3 999.7 1230.7 1071.2 1210.2C1142.7 1189.7 1214.3 1166.3 1285.8 1171.7C1357.3 1177 1428.7 1211 1464.3 1228L1500 1245L1500 1501L1464.3 1501C1428.7 1501 1357.3 1501 1285.8 1501C1214.3 1501 1142.7 1501 1071.2 1501C999.7 1501 928.3 1501 857 1501C785.7 1501 714.3 1501 643 1501C571.7 1501 500.3 1501 428.8 1501C357.3 1501 285.7 1501 214.2 1501C142.7 1501 71.3 1501 35.7 1501L0 1501Z" fill="#ff605f"></path><path d="M0 1302L35.7 1310C71.3 1318 142.7 1334 214.2 1324C285.7 1314 357.3 1278 428.8 1264.5C500.3 1251 571.7 1260 643 1271.5C714.3 1283 785.7 1297 857 1303C928.3 1309 999.7 1307 1071.2 1309C1142.7 1311 1214.3 1317 1285.8 1319.8C1357.3 1322.7 1428.7 1322.3 1464.3 1322.2L1500 1322L1500 1501L1464.3 1501C1428.7 1501 1357.3 1501 1285.8 1501C1214.3 1501 1142.7 1501 1071.2 1501C999.7 1501 928.3 1501 857 1501C785.7 1501 714.3 1501 643 1501C571.7 1501 500.3 1501 428.8 1501C357.3 1501 285.7 1501 214.2 1501C142.7 1501 71.3 1501 35.7 1501L0 1501Z" fill="#ff8748"></path><path d="M0 1392L35.7 1399.2C71.3 1406.3 142.7 1420.7 214.2 1426.5C285.7 1432.3 357.3 1429.7 428.8 1426.2C500.3 1422.7 571.7 1418.3 643 1404.7C714.3 1391 785.7 1368 857 1357.7C928.3 1347.3 999.7 1349.7 1071.2 1357.7C1142.7 1365.7 1214.3 1379.3 1285.8 1389.5C1357.3 1399.7 1428.7 1406.3 1464.3 1409.7L1500 1413L1500 1501L1464.3 1501C1428.7 1501 1357.3 1501 1285.8 1501C1214.3 1501 1142.7 1501 1071.2 1501C999.7 1501 928.3 1501 857 1501C785.7 1501 714.3 1501 643 1501C571.7 1501 500.3 1501 428.8 1501C357.3 1501 285.7 1501 214.2 1501C142.7 1501 71.3 1501 35.7 1501L0 1501Z" fill="#fcaf3c"></path></svg>