<svg id="visual" viewBox="0 0 900 300" width="900" height="300" xmlns="http://www.w3.org/2000/svg" xmlns:xlink="http://www.w3.org/1999/xlink" version="1.1"><rect x="0" y="0" width="900" height="300" fill="#111826"></rect><path d="M0 94L21.5 95.3C43 96.7 86 99.3 128.8 102.3C171.7 105.3 214.3 108.7 257.2 112.2C300 115.7 343 119.3 385.8 118.3C428.7 117.3 471.3 111.7 514.2 107.8C557 104 600 102 642.8 103.5C685.7 105 728.3 110 771.2 113.7C814 117.3 857 119.7 878.5 120.8L900 122L900 0L878.5 0C857 0 814 0 771.2 0C728.3 0 685.7 0 642.8 0C600 0 557 0 514.2 0C471.3 0 428.7 0 385.8 0C343 0 300 0 257.2 0C214.3 0 171.7 0 128.8 0C86 0 43 0 21.5 0L0 0Z" fill="#715df2"></path><path d="M0 100L21.5 95.2C43 90.3 86 80.7 128.8 76.2C171.7 71.7 214.3 72.3 257.2 77.2C300 82 343 91 385.8 90.3C428.7 89.7 471.3 79.3 514.2 72.7C557 66 600 63 642.8 68.3C685.7 73.7 728.3 87.3 771.2 90C814 92.7 857 84.3 878.5 80.2L900 76L900 0L878.5 0C857 0 814 0 771.2 0C728.3 0 685.7 0 642.8 0C600 0 557 0 514.2 0C471.3 0 428.7 0 385.8 0C343 0 300 0 257.2 0C214.3 0 171.7 0 128.8 0C86 0 43 0 21.5 0L0 0Z" fill="#c548cf"></path><path d="M0 50L21.5 50.5C43 51 86 52 128.8 56.5C171.7 61 214.3 69 257.2 70.5C300 72 343 67 385.8 64C428.7 61 471.3 60 514.2 60C557 60 600 61 642.8 63.7C685.7 66.3 728.3 70.7 771.2 73.7C814 76.7 857 78.3 878.5 79.2L900 80L900 0L878.5 0C857 0 814 0 771.2 0C728.3 0 685.7 0 642.8 0C600 0 557 0 514.2 0C471.3 0 428.7 0 385.8 0C343 0 300 0 257.2 0C214.3 0 171.7 0 128.8 0C86 0 43 0 21.5 0L0 0Z" fill="#ef40a6"></path><path d="M0 50L21.5 51.2C43 52.3 86 54.7 128.8 52.8C171.7 51 214.3 45 257.2 40.8C300 36.7 343 34.3 385.8 35.3C428.7 36.3 471.3 40.7 514.2 45C557 49.3 600 53.7 642.8 51.7C685.7 49.7 728.3 41.3 771.2 39.8C814 38.3 857 43.7 878.5 46.3L900 49L900 0L878.5 0C857 0 814 0 771.2 0C728.3 0 685.7 0 642.8 0C600 0 557 0 514.2 0C471.3 0 428.7 0 385.8 0C343 0 300 0 257.2 0C214.3 0 171.7 0 128.8 0C86 0 43 0 21.5 0L0 0Z" fill="#ff517f"></path><path d="M0 19L21.5 19C43 19 86 19 128.8 20.3C171.7 21.7 214.3 24.3 257.2 25.5C300 26.7 343 26.3 385.8 26C428.7 25.7 471.3 25.3 514.2 26.5C557 27.7 600 30.3 642.8 28.2C685.7 26 728.3 19 771.2 17.7C814 16.3 857 20.7 878.5 22.8L900 25L900 0L878.5 0C857 0 814 0 771.2 0C728.3 0 685.7 0 642.8 0C600 0 557 0 514.2 0C471.3 0 428.7 0 385.8 0C343 0 300 0 257.2 0C214.3 0 171.7 0 128.8 0C86 0 43 0 21.5 0L0 0Z" fill="#ff6f61"></path></svg>